<svg width="19" height="19" viewBox="0 0 19 19" fill="none" xmlns="http://www.w3.org/2000/svg">
<path d="M2.5 17H3.9L12.525 8.375L11.125 6.975L2.5 15.6V17ZM16.8 6.925L12.55 2.725L13.95 1.325C14.3333 0.941667 14.8043 0.75 15.363 0.75C15.9217 0.75 16.3923 0.941667 16.775 1.325L18.175 2.725C18.5583 3.10833 18.7583 3.571 18.775 4.113C18.7917 4.655 18.6083 5.11733 18.225 5.5L16.8 6.925ZM15.35 8.4L4.75 19H0.5V14.75L11.1 4.15L15.35 8.4ZM11.825 7.675L11.125 6.975L12.525 8.375L11.825 7.675Z" fill="#FFC700"/>
</svg>
