<svg width="25" height="25" viewBox="0 0 25 25" fill="none" xmlns="http://www.w3.org/2000/svg">
<path d="M13.3929 16.0714L8.03577 17.0357L8.92862 11.6071L19.1608 1.41072C19.3268 1.24335 19.5243 1.1105 19.7419 1.01984C19.9595 0.929183 20.1929 0.882507 20.4286 0.882507C20.6644 0.882507 20.8978 0.929183 21.1154 1.01984C21.333 1.1105 21.5305 1.24335 21.6965 1.41072L23.5893 3.30358C23.7567 3.46958 23.8896 3.66708 23.9802 3.88469C24.0709 4.10229 24.1176 4.3357 24.1176 4.57143C24.1176 4.80717 24.0709 5.04057 23.9802 5.25818C23.8896 5.47578 23.7567 5.67328 23.5893 5.83929L13.3929 16.0714Z" stroke="#343434" stroke-linecap="round" stroke-linejoin="round"/>
<path d="M21.4286 16.9643V22.3214C21.4286 22.795 21.2405 23.2492 20.9056 23.5841C20.5707 23.919 20.1165 24.1071 19.6429 24.1071H2.6786C2.205 24.1071 1.75079 23.919 1.41591 23.5841C1.08102 23.2492 0.892883 22.795 0.892883 22.3214V5.35713C0.892883 4.88352 1.08102 4.42932 1.41591 4.09443C1.75079 3.75955 2.205 3.57141 2.6786 3.57141H8.03574" stroke="#343434" stroke-linecap="round" stroke-linejoin="round"/>
</svg>
