<svg width="21" height="20" viewBox="0 0 21 20" fill="none" xmlns="http://www.w3.org/2000/svg">
<path d="M9.5 3.88218V17.2402C9.5 18.2121 8.7121 19 7.74018 19C6.99646 19 6.33302 18.5325 6.08288 17.8321L3.93647 11.6829M16.5 11C18.1569 11 19.5 9.65685 19.5 8C19.5 6.34315 18.1569 5 16.5 5M3.93647 11.6829C2.5043 11.0741 1.5 9.65433 1.5 8C1.5 5.79086 3.29086 4 5.49999 4H7.33208C11.4327 4 14.9569 2.7659 16.5 1L16.5 15C14.9569 13.2341 11.4327 12 7.33208 12L5.49998 12C4.94518 12 4.41677 11.887 3.93647 11.6829Z" stroke="white" stroke-width="2" stroke-linecap="round" stroke-linejoin="round"/>
</svg>
